<svg id="svg" version="1.1" xmlns="http://www.w3.org/2000/svg" xmlns:xlink="http://www.w3.org/1999/xlink" width="400" height="363.8336347197107" viewBox="0, 0, 400,363.8336347197107"><g id="svgg"><path id="path0" d="M110.127 91.913 C 42.376 97.772,2.132 170.917,32.759 232.533 C 62.804 292.979,146.257 304.550,188.645 254.148 C 202.998 237.082,210.102 216.327,210.738 189.602 L 210.964 180.108 165.875 180.108 L 120.787 180.108 120.882 193.761 L 120.976 207.414 149.073 207.507 L 177.169 207.599 176.964 208.953 C 170.853 249.259,125.420 269.919,88.572 249.147 C 46.107 225.208,44.254 156.697,85.353 130.127 C 112.155 112.799,150.954 119.156,171.532 144.247 L 172.523 145.455 173.875 144.271 C 178.412 140.294,194.937 124.972,194.937 124.742 C 194.937 124.589,193.198 122.650,191.074 120.433 C 171.683 100.197,140.673 89.272,110.127 91.913 M277.577 92.106 C 241.032 95.177,218.017 115.736,217.108 146.121 C 216.429 168.792,226.735 183.589,248.954 191.845 C 254.980 194.084,261.339 195.484,279.385 198.547 C 300.630 202.153,304.616 202.918,310.429 204.512 C 325.157 208.548,331.842 214.112,333.686 223.870 C 338.438 249.016,307.531 265.461,272.494 256.430 C 259.653 253.120,246.175 245.587,230.508 232.963 L 228.647 231.463 219.926 243.292 L 211.205 255.121 212.203 255.956 C 236.550 276.328,263.169 285.945,293.288 285.249 C 336.402 284.254,365.678 260.551,365.693 226.629 C 365.704 200.669,351.037 184.759,319.984 177.049 C 317.148 176.345,305.145 174.055,293.309 171.961 C 265.994 167.126,262.315 166.163,256.626 162.358 C 249.457 157.563,246.299 149.369,248.245 140.619 C 254.489 112.553,304.374 111.083,341.888 137.860 C 343.842 139.254,345.485 140.339,345.540 140.270 C 346.138 139.522,361.664 116.442,361.664 116.301 C 361.664 115.573,350.211 108.573,343.580 105.248 C 323.726 95.291,298.779 90.324,277.577 92.106 " stroke="none" fill="#fbfbfb" fill-rule="evenodd"></path><path id="path1" d="M184.810 0.942 C 184.114 1.019,181.673 1.256,179.385 1.468 C 75.055 11.130,0.234 108.864,17.568 212.839 C 29.879 286.683,86.910 345.877,160.217 360.899 C 173.633 363.649,173.690 363.653,197.288 363.653 C 222.479 363.653,227.483 363.100,244.903 358.392 C 343.450 331.761,400.831 229.330,372.129 131.284 C 351.463 60.692,291.513 10.573,216.998 1.590 C 212.400 1.035,188.313 0.550,184.810 0.942 M135.409 92.562 C 158.180 96.100,178.724 106.533,192.384 121.496 L 195.419 124.820 194.364 125.825 C 193.784 126.377,189.322 130.462,184.448 134.903 C 179.575 139.344,174.901 143.630,174.062 144.428 L 172.537 145.878 171.729 144.820 C 156.682 125.106,126.141 115.679,101.110 123.023 C 57.983 135.676,41.324 193.751,69.803 232.161 C 101.205 274.514,169.171 259.984,176.681 209.313 L 176.936 207.595 148.866 207.595 L 120.796 207.595 120.796 193.671 L 120.796 179.747 165.823 179.747 L 210.850 179.747 210.850 188.208 C 210.850 243.068,176.227 282.513,125.248 285.729 C 65.007 289.530,16.651 238.897,22.767 178.422 C 28.436 122.369,79.032 83.802,135.409 92.562 M300.542 92.428 C 321.414 94.696,341.082 101.918,358.318 113.642 C 360.625 115.212,361.931 116.321,361.778 116.581 C 361.566 116.939,345.801 140.278,345.531 140.635 C 345.477 140.706,344.486 140.034,343.327 139.143 C 317.251 119.078,279.025 112.803,259.521 125.387 C 245.131 134.670,243.821 154.061,257.020 162.397 C 262.903 166.112,266.476 167.028,294.394 171.975 C 324.441 177.300,331.686 179.317,342.395 185.340 C 360.629 195.594,369.069 214.681,365.109 236.709 C 357.046 281.560,291.310 300.276,237.571 273.021 C 227.568 267.948,210.765 256.296,211.330 254.824 C 211.593 254.140,228.244 231.662,228.583 231.534 C 228.746 231.473,230.641 232.822,232.794 234.532 C 257.059 253.803,278.781 261.218,301.631 258.031 C 324.074 254.900,337.533 239.607,333.100 222.273 C 329.890 209.721,321.407 205.866,282.459 199.260 C 257.877 195.091,252.934 193.919,244.512 190.266 C 224.568 181.616,214.700 164.456,216.976 142.383 C 220.023 112.834,243.478 94.170,280.651 91.717 C 284.229 91.481,295.554 91.885,300.542 92.428 " stroke="none" fill="#7434c3" fill-rule="evenodd"></path><path id="path2" d="M284.371 91.769 C 285.522 91.841,287.313 91.840,288.350 91.767 C 289.387 91.694,288.445 91.635,286.257 91.636 C 284.069 91.637,283.220 91.697,284.371 91.769 M187.342 116.569 C 187.342 116.631,187.871 117.160,188.517 117.744 L 189.693 118.807 188.630 117.631 C 187.640 116.535,187.342 116.289,187.342 116.569 M284.001 118.885 C 284.551 118.968,285.365 118.966,285.810 118.880 C 286.254 118.794,285.805 118.726,284.810 118.729 C 283.816 118.732,283.452 118.802,284.001 118.885 M190.235 119.462 C 190.235 119.524,190.764 120.053,191.410 120.638 L 192.586 121.700 191.524 120.524 C 190.534 119.429,190.235 119.183,190.235 119.462 M75.032 138.608 L 73.237 140.506 75.136 138.712 C 76.900 137.044,77.200 136.709,76.930 136.709 C 76.873 136.709,76.019 137.563,75.032 138.608 M166.908 139.602 C 167.685 140.398,168.402 141.049,168.501 141.049 C 168.601 141.049,168.046 140.398,167.269 139.602 C 166.492 138.807,165.775 138.156,165.676 138.156 C 165.577 138.156,166.131 138.807,166.908 139.602 M143.337 180.018 C 155.835 180.071,176.178 180.071,188.545 180.018 C 200.912 179.965,190.687 179.922,165.823 179.922 C 140.958 179.922,130.840 179.965,143.337 180.018 M333.914 228.933 C 333.914 229.828,333.985 230.194,334.071 229.747 C 334.157 229.299,334.157 228.567,334.071 228.119 C 333.985 227.672,333.914 228.038,333.914 228.933 M74.864 238.450 C 74.864 238.512,75.393 239.041,76.040 239.625 L 77.215 240.687 76.153 239.512 C 75.163 238.416,74.864 238.170,74.864 238.450 M47.740 255.086 C 47.740 255.148,48.269 255.677,48.915 256.261 L 50.090 257.324 49.028 256.148 C 48.038 255.053,47.740 254.807,47.740 255.086 M50.995 258.341 C 50.995 258.403,51.524 258.932,52.170 259.516 L 53.345 260.579 52.283 259.403 C 51.293 258.308,50.995 258.062,50.995 258.341 M117.812 285.979 C 118.657 286.055,120.041 286.055,120.886 285.979 C 121.731 285.903,121.040 285.841,119.349 285.841 C 117.658 285.841,116.967 285.903,117.812 285.979 " stroke="none" fill="#987fcd" fill-rule="evenodd"></path><path id="path3" d="M160.737 240.597 L 159.675 241.772 160.850 240.710 C 161.946 239.720,162.192 239.421,161.912 239.421 C 161.850 239.421,161.321 239.950,160.737 240.597 " stroke="none" fill="#ac94d4" fill-rule="evenodd"></path><path id="path4" d="M50.429 119.439 L 49.367 120.615 50.542 119.553 C 51.189 118.968,51.718 118.439,51.718 118.377 C 51.718 118.098,51.419 118.344,50.429 119.439 M280.741 118.875 C 281.090 118.966,281.659 118.966,282.007 118.875 C 282.355 118.784,282.071 118.710,281.374 118.710 C 280.678 118.710,280.393 118.784,280.741 118.875 M288.160 118.881 C 288.610 118.968,289.261 118.965,289.606 118.874 C 289.952 118.784,289.584 118.713,288.788 118.717 C 287.993 118.721,287.710 118.795,288.160 118.881 M254.408 129.204 L 253.345 130.380 254.521 129.318 C 255.167 128.733,255.696 128.204,255.696 128.142 C 255.696 127.863,255.398 128.109,254.408 129.204 M216.765 148.101 C 216.764 149.892,216.825 150.669,216.901 149.830 C 216.977 148.991,216.978 147.526,216.903 146.575 C 216.828 145.624,216.766 146.311,216.765 148.101 M228.752 179.747 C 229.732 180.741,230.615 181.555,230.714 181.555 C 230.814 181.555,230.094 180.741,229.114 179.747 C 228.134 178.752,227.251 177.939,227.152 177.939 C 227.053 177.939,227.773 178.752,228.752 179.747 M55.459 188.608 C 55.460 190.199,55.523 190.805,55.600 189.954 C 55.676 189.104,55.675 187.802,55.597 187.061 C 55.520 186.320,55.457 187.016,55.459 188.608 M210.579 195.118 C 210.583 195.913,210.658 196.196,210.744 195.746 C 210.831 195.296,210.827 194.645,210.737 194.300 C 210.646 193.954,210.575 194.322,210.579 195.118 M327.306 212.410 C 327.306 212.472,327.835 213.001,328.481 213.585 L 329.656 214.647 328.594 213.472 C 327.604 212.376,327.306 212.130,327.306 212.410 M365.740 224.231 C 365.740 225.127,365.811 225.493,365.897 225.045 C 365.983 224.598,365.983 223.865,365.897 223.418 C 365.811 222.970,365.740 223.336,365.740 224.231 M365.745 228.752 C 365.748 229.747,365.818 230.111,365.901 229.561 C 365.985 229.011,365.982 228.198,365.897 227.753 C 365.811 227.308,365.743 227.758,365.745 228.752 M182.991 260.307 L 180.651 262.749 183.092 260.408 C 185.360 258.234,185.699 257.866,185.433 257.866 C 185.377 257.866,184.279 258.965,182.991 260.307 M287.798 258.845 C 288.248 258.932,288.899 258.929,289.245 258.838 C 289.591 258.747,289.222 258.677,288.427 258.681 C 287.631 258.685,287.348 258.759,287.798 258.845 M294.670 258.845 C 295.120 258.932,295.771 258.929,296.116 258.838 C 296.462 258.747,296.094 258.677,295.298 258.681 C 294.503 258.685,294.220 258.759,294.670 258.845 M288.336 285.618 C 289.281 285.693,290.827 285.693,291.772 285.618 C 292.717 285.544,291.944 285.483,290.054 285.483 C 288.165 285.483,287.392 285.544,288.336 285.618 " stroke="none" fill="#ac9cd4" fill-rule="evenodd"></path></g></svg>